# xmcd CD database file
#
# Track frame offsets:
#	150
#	26298
#	42048
#	93198
#	110649
#	144749
#	171176
#	218122
#	238025
#	274010
#
# Disc length: 3822 seconds
#
# Revision: 0
# Processed by: cddbd v1.5.2PL0 Copyright (c) Steve Scherf et al.
# Submitted via: CDex 1.51
#
DISCID=840eec0a
DTITLE=Joe Zawinul - Stories Of The Danube
DYEAR=1996
DGENRE=Jazz
TTITLE0=The Beginning
TTITLE1=Mountain Waters
TTITLE2=Empire
TTITLE3=Intro
TTITLE4=Gipsy
TTITLE5=Voice Of The Danube
TTITLE6=Unknown Soldier
TTITLE7=Intro
TTITLE8=Sultan
TTITLE9=Finale
EXTD=YEAR: 1996
EXTT0=
EXTT1=
EXTT2=
EXTT3=
EXTT4=
EXTT5=
EXTT6=
EXTT7=
EXTT8=
EXTT9=
PLAYORDER=
